<svg id="emO08DUnNit1" xmlns="http://www.w3.org/2000/svg" xmlns:xlink="http://www.w3.org/1999/xlink" viewBox="0 0 985 1001" shape-rendering="geometricPrecision" text-rendering="geometricPrecision" project-id="ca778d8a8fac42178342e40ed87e7cd5" export-id="9b6e69dca60a421eaa4008c0a50975f1" cached="false"><path d="M141.869,147.821l-61.1219,8.252L295.815,398.03l58.508-11.194L141.869,147.821Z" fill="#00ac3c"/><path d="M142.256,146.775L356.208,387.476l-60.757,11.625L78.7831,155.345l63.4729-8.57Zm-.775,2.091l-58.7711,7.935L296.179,396.958l56.257-10.764L141.481,148.866Z" clip-rule="evenodd" fill="#00ac3c" fill-rule="evenodd"/><path d="M80.7886,154.639L295.897,396.641l-50.745,45.105L32.7368,202.774l48.0518-48.135Zm-.0831,2.869L35.4393,202.852L245.316,438.968l47.803-42.491L80.7055,157.508Z" clip-rule="evenodd" fill="#00ac3c" fill-rule="evenodd"/><path d="M356.672,387.38l-55.708,49.517-55.825,4.861l50.238-44.655l61.295-9.723Zm-60.418,11.576l-45.368,40.326l49.258-4.289l50.194-44.616-54.084,8.579Z" clip-rule="evenodd" fill="#00ac3c" fill-rule="evenodd"/><path d="M339.613,459.152l-40.529-45.597l1.47-1.307l40.53,45.597-1.471,1.307Z" clip-rule="evenodd" fill="#00ac3c" fill-rule="evenodd"/><path d="M75.5172,162.038l-31.3777-35.3l1.4709-1.308l31.3777,35.301-1.4709,1.307Z" clip-rule="evenodd" fill="#00ac3c" fill-rule="evenodd"/><path d="M742.087,61.232l-61.122,8.2525L896.033,311.441l58.508-11.194L742.087,61.232Z" fill="#00ac3c"/><path d="M742.475,60.1864L956.427,300.887l-60.758,11.625L679.002,68.7563l63.473-8.5699Zm-.775,2.0904l-58.771,7.9351L896.398,310.369l56.257-10.764L741.7,62.2768Z" clip-rule="evenodd" fill="#00ac3c" fill-rule="evenodd"/><path d="M681.007,68.0501L896.115,310.052L845.37,355.157L632.955,116.185l48.052-48.1349Zm-.083,2.8687L635.657,116.263L845.534,352.379l47.803-42.491L680.924,70.9188Z" clip-rule="evenodd" fill="#00ac3c" fill-rule="evenodd"/><path d="M956.891,300.791l-55.708,49.517-55.826,4.862l50.238-44.656l61.296-9.723Zm-60.419,11.577l-45.368,40.326l49.259-4.29l50.193-44.616-54.084,8.58Z" clip-rule="evenodd" fill="#00ac3c" fill-rule="evenodd"/><path d="M939.831,372.563l-40.529-45.596l1.471-1.308l40.529,45.597-1.471,1.307Z" clip-rule="evenodd" fill="#00ac3c" fill-rule="evenodd"/><path d="M675.735,75.4495L644.358,40.1489l1.471-1.3074l31.377,35.3006-1.471,1.3074Z" clip-rule="evenodd" fill="#00ac3c" fill-rule="evenodd"/><path d="M345.675,715.893l-55.408,27.092L570.62,904.847l52-29.06L345.675,715.893Z" fill="#00ac3c"/><path d="M345.714,714.778L624.612,875.801l-53.999,30.177L288.175,742.912l57.539-28.134Zm-.077,2.229L292.36,743.056L570.629,903.715l49.999-27.942L345.637,717.007Z" clip-rule="evenodd" fill="#00ac3c" fill-rule="evenodd"/><path d="M289.855,741.61L570.26,903.502L536.314,962.3L259.418,802.434l30.437-60.824Zm.825,2.749l-28.672,57.298L535.593,959.612l31.979-55.389L290.68,744.359Z" clip-rule="evenodd" fill="#00ac3c" fill-rule="evenodd"/><path d="M625.022,875.563l-37.267,64.548-51.45,22.205l33.608-58.211l55.109-28.542Zm-53.693,30.025l-30.35,52.567l45.397-19.592l33.579-58.16-48.626,25.185Z" clip-rule="evenodd" fill="#00ac3c" fill-rule="evenodd"/><path d="M631.447,949.054l-52.832-30.503.984-1.704l52.832,30.503-.984,1.704Z" clip-rule="evenodd" fill="#00ac3c" fill-rule="evenodd"/><path d="M287.184,750.294l-40.903-23.616.984-1.704l40.903,23.615-.984,1.705Z" clip-rule="evenodd" fill="#00ac3c" fill-rule="evenodd"/><path d="M434.45,401.335l45.362-15.57-65.152,243.15-44.57,12.613l64.36-240.193Z" fill="#9747ff"/><path d="M433.816,400.743L369.003,642.63l46.284-13.098l65.636-244.957-47.107,16.168Zm1.268,1.183l43.617-14.971-64.667,241.341-42.856,12.128l63.906-238.498Z" clip-rule="evenodd" fill="#9747ff" fill-rule="evenodd"/><path d="M479.283,384.783L414.119,627.977l50.995,13.664l64.348-240.15-50.179-16.708Zm1.058,1.965l47.27,15.74-63.579,237.279-48.038-12.872l64.347-240.147Z" clip-rule="evenodd" fill="#9747ff" fill-rule="evenodd"/><path d="M368.646,642.725l55.983,15.001l40.498-16.081-50.486-13.527-45.995,14.607Zm46.032-13.013l45.591,12.216-35.734,14.188-50.441-13.515l40.584-12.889Z" clip-rule="evenodd" fill="#9747ff" fill-rule="evenodd"/><path d="M405.522,686.667l12.277-45.821-1.478-.397-12.278,45.822l1.479.396Z" clip-rule="evenodd" fill="#9747ff" fill-rule="evenodd"/><path d="M485.525,388.089l9.506-35.475-1.478-.396-9.506,35.475l1.478.396Z" clip-rule="evenodd" fill="#9747ff" fill-rule="evenodd"/><path d="M570.512,619.597l-41.465-5.598l145.9-164.14l39.69,7.594L570.512,619.597Z" fill="#00ac3c"/><path d="M570.774,620.306L715.917,457.018L674.7,449.132L527.715,614.493l43.059,5.813Zm-.525-1.418l-39.87-5.383L675.194,450.586l38.164,7.302-143.109,161Z" clip-rule="evenodd" fill="#00ac3c" fill-rule="evenodd"/><path d="M529.075,614.972L675.002,450.801l-34.424-30.599-144.1,162.115l32.597,32.655Zm-.056-1.946l-30.708-30.762L640.688,422.087l32.429,28.825L529.019,613.026Z" clip-rule="evenodd" fill="#00ac3c" fill-rule="evenodd"/><path d="M716.232,457.083L678.44,423.492l-37.871-3.298l34.081,30.293l41.582,6.596Zm-40.987-7.853l-30.777-27.357l33.416,2.91l34.051,30.267-36.69-5.82Z" clip-rule="evenodd" fill="#00ac3c" fill-rule="evenodd"/><path d="M704.659,408.394l-27.495,30.932.998.887l27.495-30.932-.998-.887Z" clip-rule="evenodd" fill="#00ac3c" fill-rule="evenodd"/><path d="M525.5,609.952l-21.286,23.947.998.887l21.286-23.947-.998-.887Z" clip-rule="evenodd" fill="#00ac3c" fill-rule="evenodd"/><path d="M460.48,111.542l35.397,22.308-200.88,88.746-32.955-23.388L460.48,111.542Z" fill="#eb9081"/><path d="M460.535,110.787L260.698,199.073L294.92,223.36l202.374-89.406-36.759-23.167Zm-.11,1.509l34.035,21.451-199.386,88.086-31.687-22.489l197.038-87.048Z" clip-rule="evenodd" fill="#eb9081" fill-rule="evenodd"/><path d="M496.255,132.954L295.337,221.716l18.613,42.13l198.402-87.651-16.097-43.241Zm-.757,1.793l15.164,40.735-196.03,86.603-17.534-39.687l198.4-87.651Z" clip-rule="evenodd" fill="#eb9081" fill-rule="evenodd"/><path d="M260.438,198.882l20.433,46.251l33.084,18.724-18.427-41.709-35.09-23.266Zm34.027,24.163l16.64,37.665-29.192-16.521-18.41-41.673l30.962,20.529Z" clip-rule="evenodd" fill="#eb9081" fill-rule="evenodd"/><path d="M250.751,247.982l37.855-16.725-.539-1.221-37.856,16.724.54,1.222Z" clip-rule="evenodd" fill="#eb9081" fill-rule="evenodd"/><path d="M497.424,139.005l29.308-12.948-.54-1.221-29.308,12.948.54,1.221Z" clip-rule="evenodd" fill="#eb9081" fill-rule="evenodd"/><path d="M887.619,685.169l2.877,41.741L700.309,617.105l-.566-40.406l187.876,108.47Z" fill="#eb9081"/><path d="M888.261,684.768L699.06,575.533l.587,41.961L891.249,728.115l-2.988-43.347Zm-1.283.801l2.767,40.136L700.971,616.717l-.543-38.853l186.55,107.705Z" clip-rule="evenodd" fill="#eb9081" fill-rule="evenodd"/><path d="M891.444,726.686L701.22,616.861l-23.029,39.887L866.033,765.199l25.411-38.513Zm-1.895.448l-23.937,36.28L680.015,656.259l21.694-37.575l187.84,108.45Z" clip-rule="evenodd" fill="#eb9081" fill-rule="evenodd"/><path d="M699.054,575.208l-25.281,43.789l4.406,37.758l22.799-39.489-1.924-42.058Zm.573,41.729l-20.589,35.66-3.888-33.316l22.779-39.454l1.698,37.11Z" clip-rule="evenodd" fill="#eb9081" fill-rule="evenodd"/><path d="M653.699,596.361l35.841,20.692.667-1.156-35.841-20.693-.667,1.157Z" clip-rule="evenodd" fill="#eb9081" fill-rule="evenodd"/><path d="M887.248,731.2l27.748,16.021.668-1.156-27.748-16.021-.668,1.156Z" clip-rule="evenodd" fill="#eb9081" fill-rule="evenodd"/></svg>
