<svg id="eRMHzABjFyD1" xmlns="http://www.w3.org/2000/svg" xmlns:xlink="http://www.w3.org/1999/xlink" viewBox="0 0 563 621" shape-rendering="geometricPrecision" text-rendering="geometricPrecision" project-id="110d121ec55a419697746f1cb079f3cf" export-id="59c86a19ff2b40f18940bcbf7a9fbcbc" cached="false"><rect width="145.872" height="203.425" rx="0" ry="0" transform="translate(13.6617 414.871)" fill="none" stroke="#9747ff" stroke-width="1.32346"/><path d="M36.7707,395.292L14.3713,413.839h145.8247l16.913-18.547h-140.3383Z" fill="#00ac3c"/><path d="M177.109,395.292h-140.3383L14.3713,413.839h145.8247m16.913-18.547l-16.913,18.547m16.913-18.547v212.909l-16.913,10.386v-204.748" fill="none" stroke="#9747ff" stroke-width="1.32346"/><rect width="145.872" height="279.751" rx="0" ry="0" transform="translate(198.946 338.546)" fill="none" stroke="#9747ff" stroke-width="1.32346"/><path d="M222.055,311.915l-22.399,25.459h145.824l16.914-25.459h-140.339Z" fill="#00ac3c"/><path d="M362.394,311.915h-140.339l-22.399,25.459h145.824m16.914-25.459L345.48,337.374m16.914-25.459v292.276L345.48,618.449v-281.075" fill="none" stroke="#9747ff" stroke-width="1.32346"/><rect width="145.872" height="369.404" rx="0" ry="0" transform="translate(384.231 248.892)" fill="none" stroke="#9747ff" stroke-width="1.32346"/><path d="M407.34,213.979l-22.399,33.58h145.824l16.914-33.58h-140.339Z" fill="#00ac3c"/><path d="M547.679,213.979h-140.339l-22.399,33.58h145.824m16.914-33.58l-16.914,33.58m16.914-33.58v385.502l-16.914,18.805v-370.727" fill="none" stroke="#9747ff" stroke-width="1.32346"/></svg>
